<svg viewBox="-3 -3 6 6"><path d="M -1.1049604,-1.9337 A 0.8287203,0.8287203 0 0 0 -1.9336808,-1.105 0.8287203,0.8287203 0 0 0 -1.7213931,-0.5526 0.8287203,0.8287203 0 0 0 -1.9336808,0 0.8287203,0.8287203 0 0 0 -1.7213931,0.5524 0.8287203,0.8287203 0 0 0 -1.9336808,1.105 0.8287203,0.8287203 0 0 0 -1.1049604,1.9337 0.8287203,0.8287203 0 0 0 -0.5525522,1.7214 0.8287203,0.8287203 0 0 0 0,1.9337 0.8287203,0.8287203 0 0 0 0.5524082,1.7214 0.8287203,0.8287203 0 0 0 1.1049604,1.9337 0.8287203,0.8287203 0 0 0 1.9336808,1.105 0.8287203,0.8287203 0 0 0 1.7213931,0.5525 0.8287203,0.8287203 0 0 0 1.9336808,0 0.8287203,0.8287203 0 0 0 1.7213931,-0.5524 0.8287203,0.8287203 0 0 0 1.9336808,-1.105 0.8287203,0.8287203 0 0 0 1.1049604,-1.9337 0.8287203,0.8287203 0 0 0 0.5525522,-1.7214 0.8287203,0.8287203 0 0 0 0,-1.9337 0.8287203,0.8287203 0 0 0 -0.5524082,-1.7214 0.8287203,0.8287203 0 0 0 -1.1049604,-1.9337 Z" id="bubblyFrame"></path><circle cx="-1.5" cy="-1.5" r="0.4358898943540677"></circle><circle cx="0" cy="-1.5" r="0.6855654600401045"></circle><circle cx="1.5" cy="-1.5" r="0.3464101615137754"></circle><circle cx="-1.5" cy="0" r="0.3464101615137759"></circle><circle cx="0" cy="0" r="0.31622776601683794"></circle><circle cx="1.5" cy="0" r="0.479583152331272"></circle><circle cx="-1.5" cy="1.5" r="0.728010988928052"></circle><circle cx="0" cy="1.5" r="0.31622776601683794"></circle><circle cx="1.5" cy="1.5" r="0.6855654600401045"></circle></svg>